<?xml version="1.0" encoding="utf-8"?>
<!-- Generator: Adobe Illustrator 17.1.0, SVG Export Plug-In . SVG Version: 6.00 Build 0)  -->
<!DOCTYPE svg PUBLIC "-//W3C//DTD SVG 1.1//EN" "http://www.w3.org/Graphics/SVG/1.1/DTD/svg11.dtd">
<svg version="1.1" id="Слой_1" xmlns="http://www.w3.org/2000/svg" xmlns:xlink="http://www.w3.org/1999/xlink" x="0px" y="0px"
	 viewBox="0 0 140 140" enable-background="new 0 0 140 140" xml:space="preserve">
<circle fill="#040E1C" cx="70" cy="70" r="67.5"/>
<g>
	<rect x="75.9" y="62.5" fill="none" stroke="#FFFFFF" stroke-width="1.9752" stroke-miterlimit="10" width="18.1" height="37.5"/>
	<rect x="46" y="44.8" fill="none" stroke="#FFFFFF" stroke-width="1.9752" stroke-miterlimit="10" width="29.7" height="55.2"/>
	<line fill="none" stroke="#FFFFFF" stroke-width="1.9752" stroke-miterlimit="10" x1="89.5" y1="69" x2="79.4" y2="69"/>
	<line fill="none" stroke="#FFFFFF" stroke-width="1.9752" stroke-miterlimit="10" x1="89.5" y1="76.4" x2="79.4" y2="76.4"/>
	<line fill="none" stroke="#FFFFFF" stroke-width="1.9752" stroke-miterlimit="10" x1="89.5" y1="83.8" x2="79.4" y2="83.8"/>
	<line fill="none" stroke="#FFFFFF" stroke-width="1.9752" stroke-miterlimit="10" x1="72.1" y1="68.4" x2="51.5" y2="68.4"/>
	<line fill="none" stroke="#FFFFFF" stroke-width="1.9752" stroke-miterlimit="10" x1="72.1" y1="60.4" x2="51.5" y2="60.4"/>
	<line fill="none" stroke="#FFFFFF" stroke-width="1.9752" stroke-miterlimit="10" x1="72.1" y1="51.8" x2="51.5" y2="51.8"/>
	<line fill="none" stroke="#FFFFFF" stroke-width="1.9752" stroke-miterlimit="10" x1="90.1" y1="91.1" x2="80" y2="91.1"/>
	<rect x="49.7" y="38" fill="none" stroke="#FFFFFF" stroke-width="1.9752" stroke-miterlimit="10" width="21.8" height="6.9"/>
	<rect x="51.5" y="76.1" fill="none" stroke="#FFFFFF" stroke-width="1.9752" stroke-miterlimit="10" width="20.6" height="7.4"/>
	<polygon fill="none" stroke="#FFFFFF" stroke-width="1.9752" stroke-miterlimit="10" points="67.9,86.5 61.2,86.5 54.5,86.5 
		54.5,100 67.9,100 	"/>
	<line fill="none" stroke="#FFFFFF" stroke-width="1.9752" stroke-miterlimit="10" x1="61.2" y1="99.4" x2="61.2" y2="86.5"/>
	<path fill="none" stroke="#FFFFFF" stroke-width="1.9752" stroke-miterlimit="10" d="M37.7,92.4h-1c-2.4,0-4.4-2-4.4-4.4v-7.1
		c0-2.4,2-4.4,4.4-4.4h1c2.4,0,4.4,2,4.4,4.4v7.1C42.1,90.4,40.2,92.4,37.7,92.4z"/>
	<path fill="none" stroke="#FFFFFF" stroke-width="1.9752" stroke-miterlimit="10" d="M103.3,92.4h-1c-2.4,0-4.4-2-4.4-4.4v-7.1
		c0-2.4,2-4.4,4.4-4.4h1c2.4,0,4.4,2,4.4,4.4v7.1C107.6,90.4,105.7,92.4,103.3,92.4z"/>
	<line fill="none" stroke="#FFFFFF" stroke-width="1.9752" stroke-miterlimit="10" x1="37.3" y1="100.5" x2="37.3" y2="92.4"/>
	<line fill="none" stroke="#FFFFFF" stroke-width="1.9752" stroke-miterlimit="10" x1="102.8" y1="100.5" x2="102.8" y2="92.4"/>
</g>
</svg>
