<?xml version="1.0" encoding="utf-8"?>
<!-- Generator: Adobe Illustrator 17.1.0, SVG Export Plug-In . SVG Version: 6.00 Build 0)  -->
<!DOCTYPE svg PUBLIC "-//W3C//DTD SVG 1.1//EN" "http://www.w3.org/Graphics/SVG/1.1/DTD/svg11.dtd">
<svg version="1.1" id="Layer_1" xmlns="http://www.w3.org/2000/svg" xmlns:xlink="http://www.w3.org/1999/xlink" x="0px" y="0px"
	 viewBox="0 0 140 140" enable-background="new 0 0 140 140" xml:space="preserve">
<g>
	<circle fill="#040E1C" cx="69.3" cy="70" r="68"/>
	<g>
		
			<path fill="none" stroke="#FFFFFF" stroke-width="2.0896" stroke-linecap="round" stroke-linejoin="round" stroke-miterlimit="10" d="
			M69.3,70.1"/>
		<g>
			
				<path fill="none" stroke="#FFFFFF" stroke-width="2.0896" stroke-linecap="round" stroke-linejoin="round" stroke-miterlimit="10" d="
				M69.3,69.2V50.6c0-3.8-8.3-6.8-18.5-6.8s-18.5,3.1-18.5,6.8v37c0,3.8,8.3,6.8,18.5,6.8"/>
			
				<path fill="none" stroke="#FFFFFF" stroke-width="2.0896" stroke-linecap="round" stroke-linejoin="round" stroke-miterlimit="10" d="
				M69.3,60.4c0,3.8-8.3,6.8-18.5,6.8s-18.5-3.1-18.5-6.8"/>
			
				<path fill="none" stroke="#FFFFFF" stroke-width="2.0896" stroke-linecap="round" stroke-linejoin="round" stroke-miterlimit="10" d="
				M50.8,76.9c-10.2,0-18.5-3.1-18.5-6.8"/>
			
				<path fill="none" stroke="#FFFFFF" stroke-width="2.0896" stroke-linecap="round" stroke-linejoin="round" stroke-miterlimit="10" d="
				M50.8,84.7c-10.2,0-18.5-3.1-18.5-6.8"/>
			
				<ellipse fill="none" stroke="#FFFFFF" stroke-width="2.0896" stroke-linecap="round" stroke-linejoin="round" stroke-miterlimit="10" cx="50.8" cy="50.6" rx="18.5" ry="6.8"/>
		</g>
		<g>
			
				<path fill="none" stroke="#FFFFFF" stroke-width="2.0896" stroke-linecap="round" stroke-linejoin="round" stroke-miterlimit="10" d="
				M69.3,69.2V50.6c0-3.8,8.3-6.8,18.5-6.8s18.5,3.1,18.5,6.8v37c0,3.8-8.3,6.8-18.5,6.8"/>
			
				<path fill="none" stroke="#FFFFFF" stroke-width="2.0896" stroke-linecap="round" stroke-linejoin="round" stroke-miterlimit="10" d="
				M69.3,60.4c0,3.8,8.3,6.8,18.5,6.8s18.5-3.1,18.5-6.8"/>
			
				<path fill="none" stroke="#FFFFFF" stroke-width="2.0896" stroke-linecap="round" stroke-linejoin="round" stroke-miterlimit="10" d="
				M87.8,76.9c10.2,0,18.5-3.1,18.5-6.8"/>
			
				<path fill="none" stroke="#FFFFFF" stroke-width="2.0896" stroke-linecap="round" stroke-linejoin="round" stroke-miterlimit="10" d="
				M87.8,84.7c10.2,0,18.5-3.1,18.5-6.8"/>
			
				<ellipse fill="none" stroke="#FFFFFF" stroke-width="2.0896" stroke-linecap="round" stroke-linejoin="round" stroke-miterlimit="10" cx="87.8" cy="50.6" rx="18.5" ry="6.8"/>
		</g>
		<g>
			
				<path fill="none" stroke="#FFFFFF" stroke-width="2.0896" stroke-linecap="round" stroke-linejoin="round" stroke-miterlimit="10" d="
				M70.3,69.1c10.2,0,18.5,3.1,18.5,6.8v19.5c0,3.8-8.3,6.8-18.5,6.8s-18.5-3.1-18.5-6.8V76C51.8,72.2,60.1,69.1,70.3,69.1z"/>
			
				<path fill="none" stroke="#FFFFFF" stroke-width="2.0896" stroke-linecap="round" stroke-linejoin="round" stroke-miterlimit="10" d="
				M51.8,85.7c0,3.8,8.3,6.8,18.5,6.8s18.5-3.1,18.5-6.8"/>
		</g>
		
			<ellipse fill="none" stroke="#FFFFFF" stroke-width="2.0896" stroke-linecap="round" stroke-linejoin="round" stroke-miterlimit="10" cx="70.3" cy="76" rx="18.5" ry="6.8"/>
	</g>
</g>
</svg>
