<?xml version="1.0" encoding="utf-8"?>
<!-- Generator: Adobe Illustrator 17.1.0, SVG Export Plug-In . SVG Version: 6.00 Build 0)  -->
<!DOCTYPE svg PUBLIC "-//W3C//DTD SVG 1.1//EN" "http://www.w3.org/Graphics/SVG/1.1/DTD/svg11.dtd">
<svg version="1.1" id="Layer_1" xmlns="http://www.w3.org/2000/svg" xmlns:xlink="http://www.w3.org/1999/xlink" x="0px" y="0px"
	 viewBox="0 0 110 110" enable-background="new 0 0 110 110" xml:space="preserve">
<g>
	<path fill="#FFFF00" d="M99.1,40.6H84l6.3-8.5h0.8c5.2,0,9.4-4.5,9.4-10.2c0-5.6-4.2-10.2-9.4-10.2c-5.2,0-9.4,4.5-9.4,10.2v2.6
		l-16.3,16H52c1.4,0,2.6-0.6,3.5-1.7c0.8-1,1.2-2.4,1-3.7c0-0.1,0-0.2-0.1-0.3l-1.3-4.3l4,1.4c0.1,0,0.2,0.1,0.3,0.1
		c1.2,0.2,2.5-0.2,3.4-1.1c1-1,1.6-2.3,1.6-3.8v-0.3c0-1.5-0.6-2.8-1.6-3.8c-0.9-0.9-2.2-1.3-3.4-1.1c-0.1,0-0.2,0-0.2,0.1l-4,1.4
		l1.3-4.2c0-0.1,0-0.2,0.1-0.3c0.2-1.3-0.2-2.7-1-3.7c-0.9-1.1-2.2-1.7-3.5-1.7h-0.3c-1.4,0-2.6,0.6-3.5,1.7c-0.8,1-1.2,2.4-1,3.7
		c0,0.1,0,0.2,0.1,0.3l1.3,4.3l-4-1.4c-0.1,0-0.2-0.1-0.3-0.1c-1.2-0.2-2.5,0.2-3.4,1.1c-1,1-1.6,2.3-1.6,3.8v0.3
		c0,1.5,0.6,2.8,1.6,3.8c0.9,0.9,2.2,1.3,3.4,1.1c0.1,0,0.2,0,0.3-0.1l4-1.4l-1.3,4.3c0,0.1,0,0.2-0.1,0.3c-0.2,1.3,0.2,2.7,1,3.7
		c0.9,1.1,2.2,1.7,3.5,1.7H10.9c-1.7,0-3.1,1.5-3.1,3.4c0,18.3,9.8,35,25.2,42.8v4.6c0,3.7,2.8,6.8,6.3,6.8h31.5
		c3.5,0,6.3-3,6.3-6.8v-4.6C92.4,79,102.2,62.3,102.2,44C102.2,42.1,100.8,40.6,99.1,40.6z M56.6,26.5l3.4-1.1
		c0.3,0,0.6,0.1,0.8,0.3c0.3,0.3,0.5,0.8,0.5,1.2v0.3c0,0.5-0.2,0.9-0.5,1.2c-0.2,0.2-0.5,0.3-0.8,0.3l-3.4-1.2L56.6,26.5z
		 M50.6,17.5c0.3-0.4,0.7-0.6,1.2-0.5H52c0.4,0,0.9,0.2,1.2,0.5c0.2,0.2,0.3,0.5,0.3,0.8L52.3,22h-0.9l-1.1-3.7
		C50.3,18,50.4,17.7,50.6,17.5z M47.1,27.5l-3.4,1.2c-0.3,0-0.6-0.1-0.8-0.3c-0.3-0.3-0.5-0.8-0.5-1.2v-0.3c0-0.5,0.2-0.9,0.5-1.2
		c0.2-0.2,0.5-0.3,0.7-0.3h0.1l3.4,1.2V27.5z M50.3,25.4h3.1h0l0,3.4v0h-3.1V25.4z M50.6,36.7c-0.2-0.2-0.3-0.5-0.3-0.8l1.1-3.7h0.9
		l1.1,3.7c0,0.3-0.1,0.6-0.3,0.8c-0.3,0.4-0.7,0.5-1.1,0.5h-0.3C51.3,37.2,50.9,37,50.6,36.7z M84.9,26.1V22c0-3.7,2.8-6.8,6.3-6.8
		c3.5,0,6.3,3,6.3,6.8c0,3.7-2.8,6.8-6.3,6.8h-2.3L80,40.6h-9.9L84.9,26.1z M73.6,84.7c-0.6,0.3-1,1-1,1.7c0.1,0.7,0.6,1.4,1.3,1.5
		v3.4c0,1.9-1.4,3.4-3.1,3.4H39.3c-1.7,0-3.1-1.5-3.1-3.4V88c0.7-0.1,1.2-0.8,1.3-1.5c0.1-0.7-0.3-1.4-1-1.7
		C21,78,10.9,61.9,10.9,44h18.7c-1.4,0-2.6,0.6-3.5,1.7c-0.8,1-1.2,2.4-1,3.7c0,0.1,0,0.2,0.1,0.3l1.3,4.3l-4-1.4
		c-0.1,0-0.2-0.1-0.3-0.1c-1.2-0.2-2.5,0.2-3.4,1.1c-1,1-1.6,2.3-1.6,3.8v0.3c0,1.5,0.6,2.8,1.6,3.8c0.9,0.9,2.2,1.3,3.4,1.1
		c0.1,0,0.2,0,0.3-0.1l4-1.4l-1.3,4.3c0,0.1,0,0.2-0.1,0.3c-0.2,1.3,0.2,2.7,1,3.7c0.9,1.1,2.2,1.7,3.5,1.7H30
		c1.4,0,2.6-0.6,3.5-1.7c0.8-1,1.2-2.4,1-3.7c0-0.1,0-0.2-0.1-0.3l-1.3-4.3l4,1.4c0.1,0,0.2,0.1,0.3,0.1c1.2,0.2,2.5-0.2,3.4-1.1
		c1-1,1.6-2.3,1.6-3.8v-0.3c0-1.5-0.6-2.8-1.6-3.8c-0.9-0.9-2.2-1.3-3.4-1.1c-0.1,0-0.2,0-0.2,0.1l-4,1.4l1.3-4.2
		c0-0.1,0-0.2,0.1-0.3c0.2-1.3-0.2-2.7-1-3.7C32.6,44.6,31.3,44,30,44h69.1C99.1,61.9,89,78,73.6,84.7z M31.4,59.2h-3.1v-3.4h3.1h0
		L31.4,59.2L31.4,59.2z M31.4,66.3c0,0.3-0.1,0.6-0.3,0.8c-0.3,0.4-0.7,0.5-1.2,0.5h-0.3c-0.4,0-0.9-0.2-1.2-0.5
		c-0.2-0.2-0.3-0.5-0.3-0.8l1.1-3.7h0.9L31.4,66.3z M30.3,52.5h-0.9l-1.1-3.7c0-0.3,0.1-0.6,0.3-0.8c0.3-0.4,0.7-0.6,1.2-0.5H30
		c0.4,0,0.9,0.2,1.2,0.5c0.2,0.2,0.3,0.5,0.3,0.8L30.3,52.5z M25.1,57.1V58l-3.4,1.2c-0.3,0-0.6-0.1-0.8-0.3
		c-0.3-0.3-0.5-0.8-0.5-1.2v-0.3c0-0.5,0.2-0.9,0.5-1.2c0.2-0.2,0.5-0.3,0.7-0.3h0.1L25.1,57.1z M34.6,58l0-1l3.4-1.1
		c0.3,0,0.6,0.1,0.8,0.3c0.3,0.3,0.5,0.8,0.5,1.2v0.3c0,0.5-0.2,0.9-0.5,1.2c-0.2,0.2-0.5,0.3-0.8,0.3L34.6,58z"/>
	<path fill="#FFFF00" d="M22,16.9h3.1v3.4H22V16.9z"/>
	<path fill="#FFFF00" d="M22,23.7h3.1v3.4H22V23.7z"/>
	<path fill="#FFFF00" d="M18.8,20.3H22v3.4h-3.1V20.3z"/>
	<path fill="#FFFF00" d="M25.1,20.3h3.1v3.4h-3.1V20.3z"/>
	<path fill="#FFFF00" d="M69.2,11.8h3.1v3.4h-3.1V11.8z"/>
	<path fill="#FFFF00" d="M69.2,18.6h3.1V22h-3.1V18.6z"/>
	<path fill="#FFFF00" d="M66,15.2h3.1v3.4H66V15.2z"/>
	<path fill="#FFFF00" d="M72.3,15.2h3.1v3.4h-3.1V15.2z"/>
	<path fill="#FFFF00" d="M44,66h3.1v3.4H44V66z"/>
	<path fill="#FFFF00" d="M44,72.8h3.1v3.4H44V72.8z"/>
	<path fill="#FFFF00" d="M40.8,69.4H44v3.4h-3.1V69.4z"/>
	<path fill="#FFFF00" d="M47.1,69.4h3.1v3.4h-3.1V69.4z"/>
	<path fill="#FFFF00" d="M73.9,57.5H77v3.4h-3.1V57.5z"/>
	<path fill="#FFFF00" d="M73.9,64.3H77v3.4h-3.1V64.3z"/>
	<g>
		<path fill="#FFFF00" d="M70.7,60.9h3.1v3.4h-3.1V60.9z"/>
		<path fill="#FFFF00" d="M77,60.9h3.1v3.4H77V60.9z"/>
	</g>
</g>
</svg>
