<?xml version="1.0" encoding="utf-8"?>
<!-- Generator: Adobe Illustrator 17.1.0, SVG Export Plug-In . SVG Version: 6.00 Build 0)  -->
<!DOCTYPE svg PUBLIC "-//W3C//DTD SVG 1.1//EN" "http://www.w3.org/Graphics/SVG/1.1/DTD/svg11.dtd">
<svg version="1.1" id="Layer_1" xmlns="http://www.w3.org/2000/svg" xmlns:xlink="http://www.w3.org/1999/xlink" x="0px" y="0px"
	 viewBox="0 0 110 110" enable-background="new 0 0 110 110" xml:space="preserve">
<g>
	<path fill="#FFFF00" d="M76.4,100.9h21.4c0.8,0,1.5-0.7,1.5-1.5v0V53.5c0-2.5-2.1-4.6-4.6-4.6h-6.1v-4.7c3-0.4,5.8-2.1,7.5-4.7
		c1.9-2.8,2.2-6.4,0.9-9.6l-8.5-19.9c-0.3-0.8-1.2-1.1-2-0.8c-0.4,0.2-0.7,0.4-0.8,0.8l-8.5,19.9c-1.4,3.1-1,6.7,0.9,9.6
		c1.7,2.6,4.4,4.3,7.5,4.7v4.7h-6.1c-2.5,0-4.6,2.1-4.6,4.6v45.9C74.9,100.2,75.6,100.9,76.4,100.9
		C76.4,100.9,76.4,100.9,76.4,100.9z M80.7,37.8c-1.3-2-1.6-4.5-0.6-6.7l7.1-16.6l7.1,16.6c1,2.2,0.7,4.7-0.6,6.7
		c-1.1,1.7-2.9,2.9-4.9,3.2v-4.4c0-0.8-0.7-1.5-1.5-1.5c-0.8,0-1.5,0.7-1.5,1.5v4.4C83.6,40.7,81.8,39.5,80.7,37.8z M77.9,53.5
		c0-0.8,0.7-1.5,1.5-1.5h6.1v1.5c0,0.8,0.7,1.5,1.5,1.5c0.8,0,1.5-0.7,1.5-1.5v-1.5h6.1c0.8,0,1.5,0.7,1.5,1.5v44.3H77.9V53.5z"/>
	<path fill="#FFFF00" d="M91.7,56.5h-9.2c-0.8,0-1.5,0.7-1.5,1.5c0,0.8,0.7,1.5,1.5,1.5h9.2c0.8,0,1.5-0.7,1.5-1.5
		C93.2,57.2,92.5,56.5,91.7,56.5z"/>
	<path fill="#FFFF00" d="M64.2,44.3v-3.1c0-2.5-2.1-4.6-4.6-4.6c-2.5,0-4.6,2.1-4.6,4.6v3.1c0,2.5,2.1,4.6,4.6,4.6
		C62.1,48.9,64.2,46.8,64.2,44.3z M58.1,44.3v-3.1c0-0.8,0.7-1.5,1.5-1.5c0.8,0,1.5,0.7,1.5,1.5v3.1c0,0.8-0.7,1.5-1.5,1.5
		C58.7,45.8,58.1,45.1,58.1,44.3z"/>
	<path fill="#FFFF00" d="M36.7,94.8c0.8,0,1.5-0.7,1.5-1.5c0-0.8-0.7-1.5-1.5-1.5c-6.1,0-10.7-2.4-10.7-4.6c0-0.8-0.7-1.5-1.5-1.5
		c-0.8,0-1.5,0.7-1.5,1.5C22.9,91.5,28.8,94.8,36.7,94.8z"/>
	<path fill="#FFFF00" d="M38.2,76.4c0.8,0,1.5-0.7,1.5-1.5c0-0.8-0.7-1.5-1.5-1.5c-3.7,0-5.9-1.1-6.1-1.6c0-0.8-0.7-1.5-1.6-1.5
		c-0.8,0-1.5,0.7-1.5,1.5C29,75,33.8,76.4,38.2,76.4z"/>
	<path fill="#FFFF00" d="M38.2,64.2c0.8,0,1.5-0.7,1.5-1.5c0-0.8-0.7-1.5-1.5-1.5c-1.9,0-3.1-0.9-3.1-1.5c0-0.8-0.7-1.5-1.5-1.5
		c-0.8,0-1.5,0.7-1.5,1.5C32.1,62.2,34.8,64.2,38.2,64.2z"/>
	<path fill="#FFFF00" d="M12.2,27.5h24.5V29c0,2.5,2,4.6,4.6,4.6c0.6,0,1.2-0.1,1.7-0.3c0.6,2.4,3.1,3.9,5.5,3.2
		c0.7-0.2,1.4-0.5,1.9-1c1.9,1.7,4.7,1.6,6.4-0.3c0.5-0.5,0.9-1.2,1-1.9c2.3,1,5-0.2,6-2.5c0.2-0.6,0.3-1.1,0.3-1.7v-1.5h4.6
		c0.8,0,1.5-0.7,1.5-1.5v-6.1c0-0.8-0.7-1.5-1.5-1.5h0h-4.6v-1.5c0-2.5-2-4.6-4.6-4.6c-0.6,0-1.2,0.1-1.7,0.3
		c-0.6-2.4-3.1-3.9-5.5-3.2c-0.7,0.2-1.4,0.5-1.9,1c-1.9-1.7-4.7-1.6-6.4,0.3c-0.5,0.5-0.9,1.2-1,1.9c-2.3-1-5,0.2-6,2.5
		c-0.2,0.6-0.3,1.1-0.3,1.7v1.5H12.2c-0.8,0-1.5,0.7-1.5,1.5v0v6.1C10.7,26.8,11.3,27.5,12.2,27.5L12.2,27.5z M67.2,21.4v3.1h-3.1
		v-3.1H67.2z M59.6,15.2c0.8,0,1.5,0.7,1.5,1.5V29c0,0.8-0.7,1.5-1.5,1.5c-0.8,0-1.5-0.7-1.5-1.5V16.8
		C58.1,15.9,58.7,15.2,59.6,15.2z M53.5,12.2c0.8,0,1.5,0.7,1.5,1.5v18.3c0,0.8-0.7,1.5-1.5,1.5c-0.8,0-1.5-0.7-1.5-1.5V13.7
		C51.9,12.9,52.6,12.2,53.5,12.2z M45.8,13.7c0-0.8,0.7-1.5,1.5-1.5c0.8,0,1.5,0.7,1.5,1.5v18.3c0,0.8-0.7,1.5-1.5,1.5
		c-0.8,0-1.5-0.7-1.5-1.5V13.7z M39.7,16.8c0-0.8,0.7-1.5,1.5-1.5c0.8,0,1.5,0.7,1.5,1.5V29c0,0.8-0.7,1.5-1.5,1.5
		c-0.8,0-1.5-0.7-1.5-1.5V16.8z M13.7,21.4h22.9v3.1H13.7V21.4z"/>
	<path fill="#FFFF00" d="M15.2,87.1c0,7.7,12.1,13.8,27.5,13.8c15.4,0,27.5-6,27.5-13.8c0-3.9-3.1-7.6-8.7-10.1
		c1.6-1.3,2.5-3.2,2.6-5.2c-0.2-2.6-1.6-4.9-3.9-6.2c1.4-1.1,2.3-2.7,2.3-4.5c0-5.2-8.5-9.2-19.9-9.2c-11.3,0-19.9,3.9-19.9,9.2
		c0.1,1.8,0.9,3.4,2.3,4.5c-2.2,1.3-3.7,3.6-3.9,6.2c0.1,2,1,3.9,2.6,5.2C18.4,79.5,15.2,83.2,15.2,87.1z M42.8,55
		c9.6,0,16.8,3.2,16.8,6.1c0,2.9-7.2,6.1-16.8,6.1c-9.6,0-16.8-3.2-16.8-6.1C25.9,58.2,33.1,55,42.8,55z M28.1,67.4
		c4.6,2.1,9.7,3,14.7,2.9c5.1,0.1,10.1-0.8,14.7-2.9c2.3,1.3,3.6,2.9,3.6,4.4c0,3.6-7.5,7.6-18.3,7.6c-10.8,0-18.3-4-18.3-7.6
		C24.4,70.3,25.7,68.7,28.1,67.4z M26.9,79.1c4.9,2.4,10.4,3.6,15.9,3.5c5.5,0.1,10.9-1,15.9-3.5c5.4,2.1,8.6,5.1,8.6,8.1
		c0,5.2-9.8,10.7-24.5,10.7c-14.6,0-24.5-5.5-24.5-10.7C18.3,84.1,21.5,81.1,26.9,79.1z"/>
</g>
</svg>
