<?xml version="1.0" encoding="utf-8"?>
<!-- Generator: Adobe Illustrator 17.1.0, SVG Export Plug-In . SVG Version: 6.00 Build 0)  -->
<!DOCTYPE svg PUBLIC "-//W3C//DTD SVG 1.1//EN" "http://www.w3.org/Graphics/SVG/1.1/DTD/svg11.dtd">
<svg version="1.1" id="Layer_1" xmlns="http://www.w3.org/2000/svg" xmlns:xlink="http://www.w3.org/1999/xlink" x="0px" y="0px"
	 viewBox="0 0 110 110" enable-background="new 0 0 110 110" xml:space="preserve">
<g>
	<path fill="#FFFF00" d="M72.4,66.4c0.5,0,0.8,0.2,1.5,1c0.9,1.3,2.4,2.2,4,2.2c0.9,0,1.6-0.7,1.6-1.6s-0.7-1.6-1.6-1.6
		c-0.5,0-0.8-0.2-1.5-1c-0.9-1.4-2.4-2.2-4-2.2c-1.6,0-3.1,0.8-4,2.2c-0.7,0.8-0.9,1-1.5,1c-0.6,0-0.8-0.3-1.5-1
		c-0.9-1.3-2.4-2.2-4-2.2c-0.9,0-1.6,0.7-1.6,1.6c0,0.9,0.7,1.6,1.6,1.6c0.6,0,0.8,0.3,1.5,1c0.9,1.4,2.4,2.2,4,2.2
		c1.6,0,3.1-0.8,4-2.2C71.6,66.7,71.9,66.4,72.4,66.4z"/>
	<path fill="#FFFF00" d="M34.8,66.4c0.5,0,0.8,0.2,1.5,1c0.9,1.3,2.4,2.2,4,2.2c0.9,0,1.6-0.7,1.6-1.6s-0.7-1.6-1.6-1.6
		c-0.5,0-0.8-0.2-1.5-1c-0.9-1.3-2.4-2.2-4-2.2c-1.6,0.1-3.1,0.9-4,2.2c-0.7,0.8-0.9,1-1.5,1c-0.6,0-0.8-0.3-1.5-1
		c-0.9-1.3-2.4-2.2-4-2.2c-0.9,0-1.6,0.7-1.6,1.6c0,0.9,0.7,1.6,1.6,1.6c0.6,0,0.8,0.3,1.5,1c0.9,1.3,2.4,2.2,4,2.2
		c1.6-0.1,3.1-0.9,4-2.2C34,66.7,34.3,66.4,34.8,66.4z"/>
	<path fill="#FFFF00" d="M79.9,78.5c-0.7,0.8-0.9,1-1.5,1c-0.6,0-0.8-0.3-1.5-1c-0.9-1.3-2.4-2.2-4-2.2c-0.9,0-1.6,0.7-1.6,1.6
		c0,0.9,0.7,1.6,1.6,1.6c0.6,0,0.8,0.3,1.5,1c0.9,1.4,2.4,2.2,4,2.2s3.1-0.8,4-2.2c0.7-0.8,0.9-1,1.5-1c0.5,0,0.8,0.2,1.5,1
		c0.9,1.3,2.4,2.2,4,2.2c0.9,0,1.6-0.7,1.6-1.6c0-0.9-0.7-1.6-1.6-1.6c-0.5,0-0.8-0.2-1.5-1c-0.9-1.4-2.4-2.2-4-2.2
		C82.3,76.3,80.8,77.1,79.9,78.5L79.9,78.5z"/>
	<path fill="#FFFF00" d="M51.7,79.5c-0.5,0-0.8-0.2-1.5-1c-0.9-1.4-2.4-2.2-4-2.2c-1.6,0-3.1,0.8-4,2.2c-0.7,0.8-0.9,1-1.5,1
		s-0.8-0.3-1.5-1c-0.9-1.3-2.4-2.2-4-2.2c-0.9,0-1.6,0.7-1.6,1.6c0,0.9,0.7,1.6,1.6,1.6c0.6,0,0.8,0.3,1.5,1c0.9,1.4,2.4,2.2,4,2.2
		c1.6,0,3.1-0.8,4-2.2c0.7-0.8,0.9-1,1.5-1c0.5,0,0.8,0.2,1.5,1c0.9,1.3,2.4,2.2,4,2.2c0.9,0,1.6-0.7,1.6-1.6
		C53.4,80.3,52.6,79.5,51.7,79.5z"/>
	<path fill="#FFFF00" d="M28.8,28.8c0-0.9-0.7-1.6-1.6-1.6c-0.9,0-1.6,0.7-1.6,1.6c0,0.7-0.2,1.3-0.6,1.9c-1.4,2.2-1.4,5,0,7.1
		c0.8,1.1,0.8,2.6,0,3.8c-0.7,1.1-1.1,2.3-1.1,3.6c0,0.9,0.7,1.6,1.6,1.6c0.9,0,1.6-0.7,1.6-1.6c0-0.7,0.2-1.3,0.6-1.9
		c1.4-2.2,1.4-5,0-7.1c-0.8-1.1-0.8-2.6,0-3.8C28.5,31.4,28.9,30.1,28.8,28.8z"/>
	<path fill="#FFFF00" d="M10.9,41.9c0,0.9,0.7,1.6,1.6,1.6c0.9,0,1.6-0.7,1.6-1.6c0-0.7,0.2-1.3,0.6-1.9c1.4-2.2,1.4-5,0-7.1
		c-0.8-1.1-0.8-2.6,0-3.8c0.7-1.1,1.1-2.3,1-3.6c0-0.9-0.7-1.6-1.6-1.6c-0.9,0-1.6,0.7-1.6,1.6c0,0.7-0.2,1.3-0.6,1.9
		c-1.4,2.2-1.4,5,0,7.1c0.8,1.1,0.8,2.6,0,3.8C11.2,39.4,10.8,40.6,10.9,41.9z"/>
	<path fill="#FFFF00" d="M73,12.5c0-0.9-0.7-1.6-1.6-1.6c-0.9,0-1.6,0.7-1.6,1.6c0,0.7-0.2,1.3-0.6,1.9c-0.7,1.1-1.1,2.3-1.1,3.6
		c0,1.3,0.3,2.5,1,3.6c0.8,1.1,0.8,2.6,0,3.8c-0.7,1.1-1.1,2.3-1,3.6c0,0.9,0.7,1.6,1.6,1.6c0.9,0,1.6-0.7,1.6-1.6
		c0-0.7,0.2-1.3,0.6-1.9c1.4-2.2,1.4-5,0-7.1c-0.4-0.5-0.6-1.2-0.6-1.9c0-0.7,0.2-1.3,0.6-1.9C72.6,15,73,13.8,73,12.5z"/>
	<path fill="#FFFF00" d="M59.9,9.2c0-0.9-0.7-1.6-1.6-1.6c-0.9,0-1.6,0.7-1.6,1.6c0,0.7-0.2,1.3-0.6,1.9c-0.7,1.1-1.1,2.3-1.1,3.6
		c0,1.3,0.3,2.5,1,3.6c0.4,0.5,0.6,1.2,0.6,1.9c0,0.7-0.2,1.3-0.6,1.9c-0.7,1.1-1.1,2.3-1.1,3.6c0,0.9,0.7,1.6,1.6,1.6
		c0.9,0,1.6-0.7,1.6-1.6c0-0.7,0.2-1.3,0.6-1.9c0.7-1.1,1.1-2.3,1-3.6c0-1.3-0.3-2.5-1.1-3.6c-0.4-0.5-0.6-1.2-0.6-1.9
		c0-0.7,0.2-1.3,0.6-1.9C59.6,11.7,59.9,10.5,59.9,9.2z"/>
	<path fill="#FFFF00" d="M104.1,50.1c0-3.6-2.9-6.5-6.5-6.5h-4.2c0.6-1,0.9-2.1,0.9-3.3c0-3.6-2.9-6.5-6.5-6.5h-3.3
		c-3.6,0-6.5,2.9-6.5,6.5c0,1.2,0.3,2.3,0.9,3.3h-4.2c-3.6,0-6.5,2.9-6.5,6.5c0,1.2,0.3,2.3,0.9,3.3h-8.9c0,0,0.1-0.1,0.1-0.1
		l1.2-1.2c2.1-2.4,3.3-5.4,3.4-8.5v-1.6c0-0.9-0.7-1.6-1.6-1.6h-1.6c-3.1,0.1-6.1,1.3-8.5,3.4l-1.2,1.2c-0.7,0.7-1.3,1.5-1.7,2.4
		c-0.4-0.9-1-1.7-1.7-2.4l-1.2-1.2c-2.3-2.1-5.3-3.3-8.5-3.4H37c-0.9,0-1.6,0.7-1.6,1.6v1.6c0.1,3.1,1.3,6.1,3.4,8.5l1.2,1.2
		c0,0,0.1,0.1,0.1,0.1H23.9c-9.9,0-18,8.1-18,18v3.3c0,5.9,2.9,11.4,7.7,14.7h-1.1c-3.6,0-6.5,2.9-6.5,6.5s2.9,6.5,6.5,6.5H19
		c1.9,0,3.7-0.8,4.9-2.3c1.2,1.4,3,2.3,4.9,2.3h6.5c3.6,0,6.5-2.9,6.5-6.5c0-1.2-0.3-2.3-0.9-3.3h45.1c9.9,0,18-8.1,18-18v-3.3
		c0-5.9-2.9-11.4-7.7-14.7h1.1C101.1,56.6,104.1,53.7,104.1,50.1z M100.8,50.1c0,1.8-1.5,3.3-3.3,3.3H91c-1.8,0-3.3-1.5-3.3-3.3
		c0-1.8,1.5-3.3,3.3-3.3h6.5C99.3,46.8,100.8,48.3,100.8,50.1z M84.4,37h3.3c1.8,0,3.3,1.5,3.3,3.3s-1.5,3.3-3.3,3.3h-3.3
		c-1.8,0-3.3-1.5-3.3-3.3S82.6,37,84.4,37z M71.4,50.1c0-1.8,1.5-3.3,3.3-3.3h6.5c1.8,0,3.3,1.5,3.3,3.3c0,1.8-1.5,3.3-3.3,3.3h-6.5
		C72.8,53.4,71.4,51.9,71.4,50.1z M54.1,47.2l1.2-1.2c1.7-1.5,3.9-2.3,6.2-2.4c-0.1,2.3-0.9,4.4-2.4,6.2L57.9,51
		c-1,0.9-2.1,1.5-3.3,1.9l3.2-3.2c0.6-0.6,0.6-1.7,0-2.3c-0.6-0.6-1.7-0.6-2.3,0l-3.2,3.2C52.6,49.3,53.3,48.1,54.1,47.2z
		 M38.6,43.6c2.3,0.1,4.4,0.9,6.2,2.4l1.2,1.2c0.9,1,1.5,2.1,1.9,3.3l-3.2-3.2c-0.6-0.6-1.7-0.6-2.3,0c-0.6,0.6-0.6,1.7,0,2.3
		l3.2,3.2c-1.2-0.4-2.4-1-3.3-1.9L41,49.7C39.6,48,38.7,45.8,38.6,43.6z M19,86.1c0-1.8,1.5-3.3,3.3-3.3h3.3c1.8,0,3.3,1.5,3.3,3.3
		c0,1.8-1.5,3.3-3.3,3.3h-1.6c-1,0-2-0.1-3-0.3C19.8,88.5,19,87.3,19,86.1z M19,99.1h-6.5c-1.8,0-3.3-1.5-3.3-3.3
		c0-1.8,1.5-3.3,3.3-3.3H19c1.8,0,3.3,1.5,3.3,3.3C22.3,97.7,20.8,99.1,19,99.1z M38.6,95.9c0,1.8-1.5,3.3-3.3,3.3h-6.5
		c-1.8,0-3.3-1.5-3.3-3.3c0-1.8,1.5-3.3,3.3-3.3h6.5C37.2,92.6,38.6,94.1,38.6,95.9z M100.8,71.4v3.3c0,8.1-6.6,14.7-14.7,14.7H31.2
		c0.6-1,0.9-2.1,0.9-3.3c0-3.6-2.9-6.5-6.5-6.5h-3.3c-3.6,0-6.5,2.9-6.5,6.5c0,0.3,0,0.6,0.1,0.8c-4.1-2.7-6.6-7.3-6.6-12.3v-3.3
		c0-8.1,6.6-14.7,14.7-14.7h62.1C94.2,56.6,100.8,63.2,100.8,71.4z"/>
</g>
</svg>
