<?xml version="1.0" encoding="utf-8"?>
<!-- Generator: Adobe Illustrator 17.1.0, SVG Export Plug-In . SVG Version: 6.00 Build 0)  -->
<!DOCTYPE svg PUBLIC "-//W3C//DTD SVG 1.1//EN" "http://www.w3.org/Graphics/SVG/1.1/DTD/svg11.dtd">
<svg version="1.1" id="Layer_1" xmlns="http://www.w3.org/2000/svg" xmlns:xlink="http://www.w3.org/1999/xlink" x="0px" y="0px"
	 viewBox="0 0 110 110" enable-background="new 0 0 110 110" xml:space="preserve">
<path fill="#FFFF00" d="M33,64.3c1,3.3,6.9,23.7,4.3,32.8c-0.1,0.4,0,0.9,0.2,1.3c0.3,0.4,0.7,0.6,1.2,0.6h32.6
	c0.5,0,0.9-0.2,1.2-0.6c0.3-0.4,0.4-0.9,0.2-1.3C70.1,88,76,67.6,77,64.3C100.2,46.8,99.6,38.8,99.4,38c0-0.1-0.1-0.2-0.1-0.4
	c-1.8-4-11-23.9-17.2-26c-2.7-0.9-4.8-0.8-6.4,0.4c-1.7,1.2-2.6,3.5-2.6,7c-0.1,1.1,0.5,2.2,1.4,2.9c1.7,1.2,4.4,0.8,6.1,0.4
	c0.6,1.8,0.9,3.7,1,5.6c-0.1,4.2,0.7,8.4,2.3,12.4c-4.3,1.2-7.7,4.3-9.3,8.4c-3.9,0.1-7.6,1.5-10.7,3.9c-3.3-3.5-2.9-4.8-1.2-9.3
	c0.3-0.9,0.7-1.9,1.1-3c1.8-5.5,0.5-9.1-1-11.2c-1.8-2.6-4.7-4.1-7.8-4.1c-3.1,0-6,1.5-7.8,4.1c-1.5,2.1-2.9,5.7-1,11.2
	c0.4,1.1,0.7,2.1,1.1,3c1.6,4.5,2.1,5.8-1.2,9.3c-3.1-2.4-6.8-3.7-10.7-3.9c-1.6-4.1-5-7.3-9.3-8.4c1.6-3.9,2.4-8.1,2.3-12.4
	c0.1-1.9,0.4-3.8,1-5.6c1.7,0.4,4.4,0.8,6.1-0.4c0.9-0.7,1.5-1.8,1.4-2.9c0-3.5-0.8-5.8-2.6-7c-1.6-1.1-3.7-1.3-6.4-0.4
	c-6.2,2.1-15.4,22-17.2,26c-0.1,0.1-0.1,0.2-0.1,0.4C10.4,38.8,9.8,46.8,33,64.3z M28.8,14.4c1.2-0.5,2.5-0.6,3.7,0
	c0.9,0.6,1.3,2.2,1.3,4.6c0,0.4-0.1,0.4-0.2,0.5C33,20,30.6,19.7,28.8,19c-0.8-0.3-1.6,0.1-1.9,0.9c-1,2.5-1.5,5.2-1.6,7.9
	c0,8.3-2.7,12.5-2.7,12.5c-0.3,0.4-0.3,0.9-0.1,1.4c0.2,0.5,0.6,0.8,1.1,0.9c7.9,1.6,9.2,7.5,9.2,7.7c0.1,0.7,0.7,1.2,1.5,1.2
	c4-0.2,7.8,1.3,10.8,4c0.3,0.3,0.7,0.5,1.1,0.5c0.4,0,0.8-0.1,1.1-0.4c5.4-5.4,5-7.7,2.9-13.4c-0.3-0.9-0.7-1.8-1-2.9
	c-1.1-3.4-0.9-6.4,0.6-8.5c1.2-1.8,3.2-2.8,5.4-2.8c2.2,0,4.2,1.1,5.4,2.8c1.6,2.2,1.8,5.1,0.6,8.5c-0.4,1.1-0.7,2.1-1,2.9
	c-2.1,5.7-2.5,8,2.9,13.4c0.3,0.3,0.7,0.4,1.1,0.4c0.4,0,0.8-0.2,1.1-0.5c2.9-2.7,6.8-4.1,10.8-4c0.7,0,1.3-0.5,1.5-1.2
	c0-0.1,1.3-6.1,9.2-7.7c0.5-0.1,0.9-0.4,1.1-0.9c0.2-0.5,0.1-1-0.1-1.4c0,0-2.7-4.2-2.7-12.5c-0.1-2.7-0.6-5.4-1.6-7.9
	c-0.3-0.7-1.1-1.1-1.9-0.9c-1.8,0.6-4.1,0.9-4.9,0.4c-0.1,0-0.2-0.1-0.2-0.5c0-2.4,0.5-4,1.3-4.6c1.2-0.5,2.5-0.5,3.7,0
	c3.8,1.3,11.3,15.3,15.3,24.1c-0.1,1.1-1.5,8.5-21.6,23.7c-0.2,0.2-0.4,0.4-0.5,0.7c-0.3,0.9-6.7,21.7-4.9,33H40.5
	c1.9-11.3-4.6-32.1-4.9-33c-0.1-0.3-0.3-0.6-0.5-0.7C14.7,46.9,13.6,39.5,13.5,38.6C17.5,29.8,25,15.7,28.8,14.4z"/>
</svg>
