<?xml version="1.0" encoding="utf-8"?>
<!-- Generator: Adobe Illustrator 17.1.0, SVG Export Plug-In . SVG Version: 6.00 Build 0)  -->
<!DOCTYPE svg PUBLIC "-//W3C//DTD SVG 1.1//EN" "http://www.w3.org/Graphics/SVG/1.1/DTD/svg11.dtd">
<svg version="1.1" id="Layer_1" xmlns="http://www.w3.org/2000/svg" xmlns:xlink="http://www.w3.org/1999/xlink" x="0px" y="0px"
	 viewBox="0 0 30 30" enable-background="new 0 0 30 30" xml:space="preserve">
<g>
	<path fill="none" stroke="#000" stroke-miterlimit="10" d="M16.5,3.3c-1.4-0.4-2.8-0.3-4.2,0.5c-3,1.5-4.6,4.3-4.1,7.2
		c0.1,0.4-1.5,1.8-1.7,2c-0.9,0.9,1.2,1.7,1.7,2.8c0.5,1.4,1.2,2.7,2,3.9c1.2,2,3.1,3.1,5,3.1"/>
	<path fill="none" stroke="#000" stroke-miterlimit="10" d="M13.4,3.3c1.4-0.4,2.8-0.3,4.2,0.5c3,1.5,4.6,4.3,4.1,7.2
		c-0.1,0.4,1,0.9,1.2,1.1c1.7,1.7-0.7,2.6-1.2,3.7c-0.5,1.4-1.2,2.7-2,3.9c-1.2,1.9-3,3-4.8,3.1"/>
	<path fill="none" stroke="#000" stroke-miterlimit="10" d="M23.7,7.8c0,1.5-0.9,4.3-0.9,4.3s-1.3,1.8-1.7,1.7
		c-0.3,0,0.4-2.5,0-2.6c-2.4-0.3-7-0.8-8.8-4.3c-0.5,2.1-2.9,3.5-4.2,4.3c-0.3,0.2,1.1,2.4,0.9,2.6c-0.4,0.2-1.7-0.9-1.7-0.9
		c-0.8-0.6-1.5-3.7-0.9-6c1-3.4,2.5-5.4,6.9-6C19.4,0,23.7,3.5,23.7,7.8z"/>
	<path fill="none" stroke="#000" stroke-linecap="round" stroke-linejoin="round" stroke-miterlimit="10" d="M10.2,19.7l0,2.9
		l-3.7,1.5c0,0,4.3,5.2,5.2,5.2c0.9,0,3.4-2.6,3.4-2.6s2.7,2.6,3.4,2.6c0.9,0,5.2-5.2,5.2-5.2L20,22.6l-0.3-2.9"/>
	<path fill="none" stroke="#000" stroke-miterlimit="10" d="M10,22.4c5.2,6,5.2,5.2,10.3,0"/>
</g>
</svg>
