<?xml version="1.0" encoding="utf-8"?>
<!-- Generator: Adobe Illustrator 17.1.0, SVG Export Plug-In . SVG Version: 6.00 Build 0)  -->
<!DOCTYPE svg PUBLIC "-//W3C//DTD SVG 1.1//EN" "http://www.w3.org/Graphics/SVG/1.1/DTD/svg11.dtd">
<svg version="1.1" id="Layer_1" xmlns="http://www.w3.org/2000/svg" xmlns:xlink="http://www.w3.org/1999/xlink" x="0px" y="0px"
	 viewBox="0 0 30 30" enable-background="new 0 0 30 30" xml:space="preserve">
<path fill="none" stroke="#000" stroke-linecap="round" stroke-linejoin="round" stroke-miterlimit="10" d="M11.1,5.9l3.4-3.4
	c0.3-0.3,0.7-0.3,1,0l3.4,3.4"/>
<polyline fill="none" stroke="#000" stroke-linecap="round" stroke-linejoin="round" stroke-miterlimit="10" points="23.7,10.7 
	26.4,13.4 26.4,27.7 3.6,27.7 3.6,13.4 6.4,10.6 "/>
<polyline fill="none" stroke="#000" stroke-linecap="round" stroke-linejoin="round" stroke-miterlimit="10" points="3.6,27.7 
	9.2,19.6 21.2,19.6 26.4,27.7 "/>
<path fill="none" stroke="#000" stroke-linecap="round" stroke-linejoin="round" stroke-miterlimit="10" d="M6.4,16.4
	c0-0.1,0-7.4,0-9.8C6.4,6.3,6.8,6,7.1,6H23c0.4,0,0.7,0.3,0.7,0.7v9.5"/>
<line fill="#FFFFFF" stroke="#000" stroke-miterlimit="10" x1="9.3" y1="10.6" x2="19.9" y2="10.6"/>
<line fill="#FFFFFF" stroke="#000" stroke-miterlimit="10" x1="9.3" y1="12.7" x2="19.9" y2="12.7"/>
<line fill="#FFFFFF" stroke="#000" stroke-miterlimit="10" x1="9.3" y1="14.8" x2="15.9" y2="14.8"/>
<polyline fill="none" stroke="#000" stroke-linecap="round" stroke-linejoin="round" stroke-miterlimit="10" points="3.9,13.6 
	9.2,19.6 21.2,19.6 25.7,13.6 "/>
</svg>
