<?xml version="1.0" encoding="utf-8"?>
<!-- Generator: Adobe Illustrator 17.1.0, SVG Export Plug-In . SVG Version: 6.00 Build 0)  -->
<!DOCTYPE svg PUBLIC "-//W3C//DTD SVG 1.1//EN" "http://www.w3.org/Graphics/SVG/1.1/DTD/svg11.dtd">
<svg version="1.1" id="Layer_1" xmlns="http://www.w3.org/2000/svg" xmlns:xlink="http://www.w3.org/1999/xlink" x="0px" y="0px"
	 viewBox="0 0 30 30" enable-background="new 0 0 30 30" xml:space="preserve">
<path fill="#00A99D" d="M14.5,22c-0.2,0.1-0.4,0.2-0.4,0.4c0,0,0,0.1-0.1,0.1c-0.3,0.2-0.5,0.6-0.6,1c0,0.1,0,0.1-0.1,0.2
	c-0.1,0.1-0.2,0.3-0.3,0.4c-0.1,0.2-0.2,0.4-0.3,0.5c0,0.1-0.1,0.2-0.1,0.3c0.1,0,0.1,0,0.2-0.1c0,0,0,0,0,0
	c-0.5,0.7-0.9,1.5-1.4,2.2c-0.2,0.4-0.6,0.6-1,0.7c-0.9,0.2-1.8,0.1-2.7-0.1c-0.2-0.1-0.3-0.2-0.4-0.4c-0.6-1.2-1.1-2.5-1.6-3.8
	c-0.1-0.2-0.1-0.3-0.2-0.5c-0.2-0.5-0.4-1.1-0.6-1.6c-0.2-0.7-0.5-1.4-0.7-2c-0.5-1.3-1-2.5-1.5-3.8c-0.1-0.2-0.1-0.4-0.1-0.6
	c0-0.2,0.1-0.3,0.3-0.3c0.3,0,0.5,0.1,0.7,0.3c0.1,0.1,0.2,0.1,0.3,0.1c0.4,0.1,2-0.4,2.5-0.3c0.4,0.1,0.7,0.4,0.8,0.8
	c0.7,1.8,1.5,3.7,2.2,5.5c0.1,0.2,0.1,0.9,0.2,1c0.1,0.3,0.2-0.4,0.5-0.8c0-0.1,0.1-0.1,0.1-0.2c0.1-0.1,0.2-0.2,0.3-0.3
	c0.2-0.1,0.3-0.2,0.3-0.5c0-0.1,0.1-0.1,0.1-0.2c1.8-2.3,2.7-3.5,4.5-5.8c0.3-0.5,0.7-0.9,1.1-1.3c0.4-0.5,0.1-0.1,0.5-0.6
	c0.2-0.2,0.4-0.3,0.4-0.6c0-0.1,0.1-0.1,0.2-0.2c0.1-0.1,0.1-0.1,0.1-0.2c0-0.1,0.1-0.2,0.2-0.2c0.3,0,0.4-0.3,0.5-0.6
	c0-0.1,0.1-0.1,0.1-0.2c0.1-0.1,0.3-0.3,0.4-0.4c0.5-0.7,1-1.2,1.7-1.8c0.2-0.2,0.3-0.3,0.5-0.5c0.1-0.1,0.2-0.3,0.4-0.4
	c0.1-0.1,0.1-0.1,0.2-0.2c0.3-0.3,0.9-0.2,1.3-0.6C23,6.5,23,6.4,23.1,6.3c0-0.2,0.1-0.2,0.2-0.3c0.2-0.1,0.3-0.3,0.5-0.4
	c0.3-0.3,0.6-0.6,0.9-0.8c0.4-0.3,0.6-0.6,1-1c0.5-0.5,1-1,1.5-1.4c0.1-0.1,0.2-0.2,0.4-0.3c-0.1,0.2-0.3,0.3-0.4,0.5
	c-0.1,0.2-0.2,0.3-0.4,0.5c0,0-0.1,0.1-0.1,0.1c0,0.3-0.2,0.3-0.4,0.5C26.1,3.8,26,3.9,25.9,4c0,0,0,0,0,0c0.2-0.1,0.4-0.2,0.5-0.3
	c0,0,0,0,0,0C26.3,3.9,26.2,4,26,4.2c-0.1,0.1-0.1,0.1-0.2,0.2c0,0-0.1,0.1,0,0.1c0,0.2,0,0.4-0.2,0.5C25.4,5,25.3,5,25.3,5
	c-0.1,0-0.1,0.1-0.2,0.2l0.2,0.2c0,0.2-0.1,0.3-0.3,0.5c-0.1,0-0.2,0-0.2,0c0,0,0-0.1-0.1-0.2c-0.1,0-0.1,0.1-0.2,0.1
	c0,0,0,0.2,0,0.2c0.1,0.1,0.1,0.2-0.1,0.3c0,0,0,0,0,0C24.1,6.5,24,6.7,24,7.1c0,0.1,0,0.1-0.1,0.2c-0.2,0.2-0.5,0.4-0.8,0.6
	C23,8,22.9,8.1,22.9,8.3c0,0.1-0.1,0.2-0.1,0.3c-0.3,0.3-0.6,0.7-0.9,1c-0.4,0.4,0,0.1-0.4,0.5c-0.1,0.2,0.4-0.1,0.2,0
	c-0.1,0.2-0.3,0.3-0.5,0.5c-0.1,0.2-0.3,0.3-0.3,0.6c0,0-0.1,0.1-0.1,0.1c-0.2,0.2-0.4,0.3-0.6,0.5c0,0-0.1,0.1-0.1,0.1
	c0,0,0,0.1,0,0.1c0,0,0.1,0,0.1,0c0.1,0,0.2,0,0.3-0.1c-0.1,0.1-0.2,0.2-0.2,0.3c-0.1,0.1-0.2,0.2,0,0.3c-0.3,0.3-0.5,0.6-0.8,0.9
	c-0.1,0.1-0.1,0.3-0.2,0.4c-0.1,0.1-0.2,0.3-0.4,0.4c-0.2,0.2-0.3,0.3-0.4,0.6c0,0.1-0.1,0.1-0.2,0.2c-0.1,0.1-0.1,0.1-0.1,0.2
	c-0.1,0.4-0.2,0.6-0.5,0.9c-0.3,0.3-0.6,0.7-0.7,1.1c-0.1,0.2-0.3,0.4-0.4,0.7c0,0,0,0.1,0,0.2c0.1,0.3-0.2,0.5-0.3,0.7c0,0,0,0,0,0
	c-0.3,0-0.3,0.2-0.4,0.4c0,0.1-0.1,0.2-0.2,0.2c-0.2,0.1-0.2,0.2-0.3,0.3c0,0.3-0.2,0.5-0.4,0.7c0,0-0.1,0.1-0.1,0.2
	c0,0.2,0,0.3-0.1,0.4c-0.2,0.3-0.4,0.6-0.6,1C14.5,21.9,14.5,21.9,14.5,22z M23.1,7.7c0.1-0.1,0.2-0.1,0.3-0.2
	c-0.1-0.1-0.1-0.2-0.2-0.2c-0.1,0-0.2,0-0.3,0.1c0,0-0.1,0.1-0.1,0.2C22.9,7.6,23,7.6,23.1,7.7z M19.6,12.7
	C19.6,12.7,19.6,12.7,19.6,12.7c0.1,0,0.2,0,0.3,0c0.1-0.1,0.3-0.2,0.3-0.3c0,0,0-0.1,0-0.1c0,0-0.1,0-0.1,0
	C19.9,12.4,19.7,12.5,19.6,12.7z M22.4,8.6C22.2,8.6,22,8.8,22,9C22.2,8.9,22.3,8.8,22.4,8.6z M18.8,14.1
	C18.8,14.1,18.7,14.1,18.8,14.1c-0.1,0-0.2,0-0.3,0.1c0,0,0.1,0.1,0.1,0.1C18.7,14.2,18.7,14.2,18.8,14.1z"/>
</svg>
