<?xml version="1.0" encoding="utf-8"?>
<!-- Generator: Adobe Illustrator 17.1.0, SVG Export Plug-In . SVG Version: 6.00 Build 0)  -->
<!DOCTYPE svg PUBLIC "-//W3C//DTD SVG 1.1//EN" "http://www.w3.org/Graphics/SVG/1.1/DTD/svg11.dtd">
<svg version="1.1" id="Layer_1" xmlns="http://www.w3.org/2000/svg" xmlns:xlink="http://www.w3.org/1999/xlink" x="0px" y="0px"
	 viewBox="0 0 44 44" enable-background="new 0 0 44 44" xml:space="preserve">
<g>
	<g>
		<linearGradient id="SVGID_1_" gradientUnits="userSpaceOnUse" x1="3.4298" y1="22" x2="43.5026" y2="22">
			<stop  offset="3.435470e-002" style="stop-color:#273580"/>
			<stop  offset="0.2149" style="stop-color:#46317C"/>
			<stop  offset="0.6071" style="stop-color:#942673"/>
			<stop  offset="0.8615" style="stop-color:#CA1E6D"/>
		</linearGradient>
		<path fill="url(#SVGID_1_)" d="M43.1,22.7c0-1.2-0.1-2.5-0.4-3.6c-0.4-1.9-1.5-3.5-3.5-4.1c-2.2-0.7-4.1,0-5.9,1.3
			c-0.1,0.1-0.2,0.2-0.2,0.3c0,1.3,0,2.7,0,4c0.6-0.1,1.2-0.3,1.8-0.3c0.8-0.1,1.5,0.1,2,0.8c0.4,0.7,0.7,1.5,0.7,2.4
			c0,3.3,0,6.5,0,9.8c0,1.4-0.8,2.4-2.1,2.9c-0.1,0-0.3,0.2-0.3,0.3c0,1.6,0,3.2,0,4.8c0,0.3,0.1,0.4,0.4,0.4c2.9,0,5.7-1.9,6.7-4.6
			c0.7-1.9,0.8-3.8,0.7-5.7C43.2,28.3,43.2,25.5,43.1,22.7z M37.5,8c1.4-0.2,2.8-0.3,4.2-0.5c0.2,0,0.3-0.1,0.3-0.3c0-1.6,0-3.2,0-5
			c-2.3,0.3-4.5,0.5-6.6,0.8c-2.5,0.3-5,0.6-7.5,0.9c-0.1,1-0.2,2.1-0.2,3.2c0,0.7-0.1,1.3-0.1,2C29,9,30.3,8.8,31.6,8.7
			C33.6,8.5,35.5,8.3,37.5,8z M31.9,24.7c0.1-2.8,0.1-5.6,0.2-8.4c0-1.6,0.1-3.2,0.2-4.8c0-0.5,0-0.9,0-1.4c-0.2,0-0.4,0-0.5,0
			c-1.2,0.1-2.5,0.2-3.7,0.2c-0.4,0-0.5,0.2-0.5,0.6c0,0.9-0.1,1.8-0.1,2.6c-0.1,3.5-0.3,6.9-0.4,10.4c0,0.5,0,0.9,0,1.5
			c1.6-0.1,3.1-0.1,4.6-0.2C31.9,25.1,31.9,24.9,31.9,24.7z M33.8,36c-1.2-0.1-1.8-1.3-1.8-2.4c-0.1-1.4-0.1-2.7-0.1-4.1
			c0-0.3-0.1-0.5-0.5-0.5c-1.3,0-2.7,0.1-4,0.1c-0.4,0-0.4,0.2-0.4,0.5c0,0.9,0,1.7,0,2.6c0,1.3,0,2.7,0.2,4
			c0.3,1.7,1.1,3.1,2.5,4.1c1.2,0.9,2.7,1.2,4.3,1.4c0-1.8,0-3.6,0-5.4C34.1,36.2,33.9,36,33.8,36z M0.8,21.6h4.3c0-1.3,0-2.5,0-3.7
			c0.1-2.5,0.8-3.3,3.2-3.6c0,0,0.1-0.1,0.2-0.1v-4.1c-2.9-0.3-6.1,1.7-7.2,4.6C0.5,16.9,0.9,19.3,0.8,21.6z M7.8,32.2
			c-1.9-0.1-2.5-0.7-2.5-2.6c0-1.5,0-2.9,0-4.4c0-0.6-0.1-1.2-0.1-1.9H0.8c0,2.3-0.1,4.5,0,6.6c0.3,4.5,2.7,7,6.9,7.5
			c0.6,0.1,0.8-0.1,0.8-0.7c0-1.3,0-2.5,0-3.8C8.5,32.4,8.3,32.2,7.8,32.2z M23.5,22.7c-1.4,0-2.7,0-4.1,0c-0.6,0-0.8,0.2-0.8,0.8
			c0,1.7,0,3.5,0,5.2c0,2.2-0.9,3.4-3,3.7c-0.1,0-0.1,0.1-0.2,0.1V37c4.2,0.2,6.9-2,7.7-5.2C23.9,28.8,23.3,25.7,23.5,22.7z
			 M9.4,41.7h4.9V5.2C12.6,5.4,11,5.6,9.4,5.8V41.7z M18.5,16.3c0,0.9,0,1.8,0,2.7c0,0.6,0,1.2,0,1.8h4.9c0-2.1,0.1-4.1,0-6.1
			c-0.1-1.8-1-3.2-2.5-4.2c-1.6-1-3.3-1.2-5.1-1c-0.2,0-0.4,0.3-0.4,0.4c0,1.3,0,2.6,0,3.9c0.4,0,0.6,0,0.9,0.1
			C17.9,14.1,18.5,14.7,18.5,16.3z"/>
	</g>
</g>
</svg>
