<?xml version="1.0" encoding="utf-8"?>
<!-- Generator: Adobe Illustrator 17.1.0, SVG Export Plug-In . SVG Version: 6.00 Build 0)  -->
<!DOCTYPE svg PUBLIC "-//W3C//DTD SVG 1.1//EN" "http://www.w3.org/Graphics/SVG/1.1/DTD/svg11.dtd">
<svg version="1.1" id="Layer_1" xmlns="http://www.w3.org/2000/svg" xmlns:xlink="http://www.w3.org/1999/xlink" x="0px" y="0px"
	 viewBox="0 0 42 42" enable-background="new 0 0 42 42" xml:space="preserve">
<g>
	<linearGradient id="SVGID_1_" gradientUnits="userSpaceOnUse" x1="7.204" y1="44.7626" x2="40.0271" y2="-11.7728">
		<stop  offset="0" style="stop-color:#FFDB73"/>
		<stop  offset="5.105904e-002" style="stop-color:#FFD473"/>
		<stop  offset="0.1273" style="stop-color:#FFBF75"/>
		<stop  offset="0.2194" style="stop-color:#FF9E77"/>
		<stop  offset="0.3229" style="stop-color:#FF7079"/>
		<stop  offset="0.3812" style="stop-color:#FF537B"/>
		<stop  offset="0.4527" style="stop-color:#F84D82"/>
		<stop  offset="0.5595" style="stop-color:#E63E97"/>
		<stop  offset="0.6884" style="stop-color:#C825B8"/>
		<stop  offset="0.8335" style="stop-color:#9E02E6"/>
		<stop  offset="0.8425" style="stop-color:#9B00E9"/>
	</linearGradient>
	<rect x="1" y="1" fill="url(#SVGID_1_)" width="40" height="40"/>
	<g>
		<g>
			<path fill="#FFFFFF" d="M25.9,31.6h-9.7c-3.2,0-5.8-2.6-5.8-5.8v-9.7c0-3.2,2.6-5.8,5.8-5.8h9.7c3.2,0,5.8,2.6,5.8,5.8v9.7
				C31.6,29,29,31.6,25.9,31.6z M16.1,11.4c-2.6,0-4.7,2.1-4.7,4.7v9.7c0,2.6,2.1,4.7,4.7,4.7h9.7c2.6,0,4.7-2.1,4.7-4.7v-9.7
				c0-2.6-2.1-4.7-4.7-4.7H16.1z"/>
		</g>
		<g>
			<path fill="#FFFFFF" d="M21,27.6c-3.6,0-6.6-3-6.6-6.6s3-6.6,6.6-6.6c3.6,0,6.6,3,6.6,6.6S24.6,27.6,21,27.6z M21,15.5
				c-3,0-5.5,2.5-5.5,5.5s2.5,5.5,5.5,5.5c3,0,5.5-2.5,5.5-5.5S24,15.5,21,15.5z"/>
		</g>
		<g>
			<circle fill="#FFFFFF" cx="27.6" cy="14.7" r="1"/>
		</g>
	</g>
</g>
</svg>
