<?xml version="1.0" encoding="utf-8"?>
<!-- Generator: Adobe Illustrator 17.1.0, SVG Export Plug-In . SVG Version: 6.00 Build 0)  -->
<!DOCTYPE svg PUBLIC "-//W3C//DTD SVG 1.1//EN" "http://www.w3.org/Graphics/SVG/1.1/DTD/svg11.dtd">
<svg version="1.1" id="Layer_1" xmlns="http://www.w3.org/2000/svg" xmlns:xlink="http://www.w3.org/1999/xlink" x="0px" y="0px"
	 viewBox="0 0 60 60" enable-background="new 0 0 60 60" xml:space="preserve">
<g>
	<path fill="#FFFFFF" d="M18.3,21.3c0-3.3,1.2-5.9,4-7.6c0.2-0.1,0.4-0.2,0.7-0.3c1.3-0.6,2.5-0.4,3.5,0.8c0.9,1,1.6,2.2,2,3.5
		c0.2,0.7,0.2,1.4,0,2.1c-0.4,1-0.9,1.9-1.7,2.6c-0.5,0.4-1,0.8-1.5,1.2c-1.1,0.9-1.5,2-1.1,3.4c0.4,1.2,0.8,2.4,1.4,3.5
		c0.9,1.5,1.9,3,2.9,4.4c0.2,0.3,0.6,0.6,0.9,0.8c0.9,0.7,1.8,0.8,2.8,0.4c0.4-0.2,0.8-0.5,1.3-0.6c0.7-0.3,1.4-0.6,2.1-0.7
		c1.5-0.3,2.8,0.1,3.8,1.5c0.7,1,1.3,2,1.6,3.2c0.4,1.2,0.2,2.3-0.8,3.2c-2.2,2.1-4.7,2.7-7.5,1.8c-2-0.7-3.7-2-5.2-3.6
		c-3.8-4.1-6.6-8.9-8.4-14.4C18.6,24.8,18.3,23.1,18.3,21.3z"/>
	<circle fill="none" stroke="#FFFFFF" stroke-width="1.4067" stroke-miterlimit="10" cx="30" cy="30" r="24.2"/>
</g>
</svg>
