<?xml version="1.0" encoding="utf-8"?>
<!-- Generator: Adobe Illustrator 17.1.0, SVG Export Plug-In . SVG Version: 6.00 Build 0)  -->
<!DOCTYPE svg PUBLIC "-//W3C//DTD SVG 1.1//EN" "http://www.w3.org/Graphics/SVG/1.1/DTD/svg11.dtd">
<svg version="1.1" id="Layer_1" xmlns="http://www.w3.org/2000/svg" xmlns:xlink="http://www.w3.org/1999/xlink" x="0px" y="0px"
	 viewBox="0 0 64 64" enable-background="new 0 0 64 64" xml:space="preserve">
<g>
	
		<rect x="5.2" y="53.6" fill="#FFFFFF" stroke="#00A99D" stroke-width="2" stroke-linecap="round" stroke-linejoin="round" stroke-miterlimit="10" width="41.5" height="4.9"/>
	
		<rect x="1.5" y="5.8" fill="none" stroke="#00A99D" stroke-width="2" stroke-linecap="round" stroke-linejoin="round" stroke-miterlimit="10" width="49.3" height="47.8"/>
	
		<circle fill="#FFFFFF" stroke="#00A99D" stroke-width="2" stroke-linecap="round" stroke-linejoin="round" stroke-miterlimit="10" cx="44.4" cy="43.6" r="18.1"/>
	
		<circle fill="none" stroke="#00A99D" stroke-width="2" stroke-linecap="round" stroke-linejoin="round" stroke-miterlimit="10" cx="44.4" cy="43.6" r="13.9"/>
	<g>
		
			<line fill="none" stroke="#00A99D" stroke-width="2" stroke-linecap="round" stroke-linejoin="round" stroke-miterlimit="10" x1="30.5" y1="44" x2="34.1" y2="44"/>
		
			<line fill="none" stroke="#00A99D" stroke-width="2" stroke-linecap="round" stroke-linejoin="round" stroke-miterlimit="10" x1="54.3" y1="44" x2="57.8" y2="44"/>
	</g>
	<g>
		
			<line fill="none" stroke="#00A99D" stroke-width="2" stroke-linecap="round" stroke-linejoin="round" stroke-miterlimit="10" x1="44.6" y1="57" x2="44.6" y2="53.5"/>
		
			<line fill="none" stroke="#00A99D" stroke-width="2" stroke-linecap="round" stroke-linejoin="round" stroke-miterlimit="10" x1="44.6" y1="33.7" x2="44.6" y2="30.2"/>
	</g>
	
		<polyline fill="none" stroke="#00A99D" stroke-width="2" stroke-linecap="round" stroke-linejoin="round" stroke-miterlimit="10" points="
		41,41.4 44.4,45.4 51.3,39.4 	"/>
	
		<circle fill="none" stroke="#00A99D" stroke-width="2" stroke-linecap="round" stroke-linejoin="round" stroke-miterlimit="10" cx="9.8" cy="23.3" r="2"/>
	
		<circle fill="none" stroke="#00A99D" stroke-width="2" stroke-linecap="round" stroke-linejoin="round" stroke-miterlimit="10" cx="20.8" cy="23.3" r="2"/>
	
		<circle fill="none" stroke="#00A99D" stroke-width="2" stroke-linecap="round" stroke-linejoin="round" stroke-miterlimit="10" cx="9.8" cy="32.1" r="2"/>
	
		<circle fill="none" stroke="#00A99D" stroke-width="2" stroke-linecap="round" stroke-linejoin="round" stroke-miterlimit="10" cx="20.8" cy="32.1" r="2"/>
	
		<circle fill="none" stroke="#00A99D" stroke-width="2" stroke-linecap="round" stroke-linejoin="round" stroke-miterlimit="10" cx="9.8" cy="40.4" r="2"/>
	
		<circle fill="none" stroke="#00A99D" stroke-width="2" stroke-linecap="round" stroke-linejoin="round" stroke-miterlimit="10" cx="20.8" cy="40.4" r="2"/>
	
		<circle fill="none" stroke="#00A99D" stroke-width="2" stroke-linecap="round" stroke-linejoin="round" stroke-miterlimit="10" cx="31.8" cy="23.3" r="2"/>
	<path fill="none" stroke="#00A99D" stroke-width="2" stroke-linecap="round" stroke-linejoin="round" stroke-miterlimit="10" d="
		M10.6,2.4H9.5C8.6,2.4,7.8,3.1,7.8,4l0,6.1h4.4V4C12.2,3.1,11.5,2.4,10.6,2.4z"/>
	<path fill="none" stroke="#00A99D" stroke-width="2" stroke-linecap="round" stroke-linejoin="round" stroke-miterlimit="10" d="
		M21.3,2.4h-1.1c-0.9,0-1.7,0.7-1.7,1.7v6.1H23V4C23,3.1,22.2,2.4,21.3,2.4z"/>
	<path fill="none" stroke="#00A99D" stroke-width="2" stroke-linecap="round" stroke-linejoin="round" stroke-miterlimit="10" d="
		M32,2.4l-1.1,0c-0.9,0-1.7,0.7-1.7,1.7v6.1h4.4V4C33.7,3.1,33,2.4,32,2.4z"/>
	<path fill="none" stroke="#00A99D" stroke-width="2" stroke-linecap="round" stroke-linejoin="round" stroke-miterlimit="10" d="
		M42.8,2.4h-1.1c-0.9,0-1.7,0.7-1.7,1.7v6.1h4.4V4C44.4,3.1,43.7,2.4,42.8,2.4z"/>
	
		<line fill="none" stroke="#00A99D" stroke-width="2" stroke-linecap="round" stroke-linejoin="round" stroke-miterlimit="10" x1="1.5" y1="15" x2="50.8" y2="15"/>
</g>
</svg>
