<?xml version="1.0" encoding="utf-8"?>
<!-- Generator: Adobe Illustrator 17.1.0, SVG Export Plug-In . SVG Version: 6.00 Build 0)  -->
<!DOCTYPE svg PUBLIC "-//W3C//DTD SVG 1.1//EN" "http://www.w3.org/Graphics/SVG/1.1/DTD/svg11.dtd">
<svg version="1.1" id="Layer_1" xmlns="http://www.w3.org/2000/svg" xmlns:xlink="http://www.w3.org/1999/xlink" x="0px" y="0px"
	 viewBox="0 0 42 42" enable-background="new 0 0 42 42" xml:space="preserve">
<g>
	<rect x="1" y="1" fill="#4477BB" width="40" height="40"/>
	<path fill="#F4F4F4" d="M8,15.2c1.1,0,3.3,0,4.1,0c0.2,0,0.3,0.1,0.4,0.2c0.9,2,2.1,3.9,3.5,5.5c0.1,0.2,0.4,0.2,0.5,0
		c0.4-1,1.2-3.6-0.3-5.4c-0.1-0.2-0.1-0.4,0.1-0.5c1.6-0.7,3.1-0.7,4.6-0.1c0.3,0.1,0.5,0.4,0.5,0.8l0.3,5.3c0,0.2,0.2,0.4,0.4,0.4
		c1.7-0.4,2.7-2.9,3.7-5.6c0.1-0.3,0.4-0.6,0.8-0.6h3.8c0.3,0,0.6,0.3,0.5,0.6c-0.4,1.9-2.3,4.4-3.3,5.6c-0.3,0.4-0.3,1,0,1.4l3.4,4
		c0.2,0.3,0,0.7-0.3,0.7h-4.3c-0.4,0-0.7-0.1-0.9-0.4l-3-2.5c-0.2-0.2-0.4-0.2-0.6-0.1c-0.4,0.4-0.3,1-0.5,2.3
		c-0.1,0.4-0.4,0.7-0.8,0.7h-2.9c-0.4,0-0.8-0.1-1.2-0.3c-1.7-0.8-6.3-3.6-8.8-11.5C7.6,15.5,7.8,15.2,8,15.2z"/>
</g>
</svg>
