<?xml version="1.0" encoding="utf-8"?>
<!-- Generator: Adobe Illustrator 17.1.0, SVG Export Plug-In . SVG Version: 6.00 Build 0)  -->
<!DOCTYPE svg PUBLIC "-//W3C//DTD SVG 1.1//EN" "http://www.w3.org/Graphics/SVG/1.1/DTD/svg11.dtd">
<svg version="1.1" id="Layer_1" xmlns="http://www.w3.org/2000/svg" xmlns:xlink="http://www.w3.org/1999/xlink" x="0px" y="0px"
	 viewBox="0 0 30 30" enable-background="new 0 0 30 30" xml:space="preserve">
<g>
	<path fill="none" stroke="#B3B3B3" stroke-linecap="round" stroke-linejoin="round" stroke-miterlimit="10" d="M3.6,8.6
		C3.7,8.5,4.9,7.3,5,7.2c1.4-1.4,5.7,3.7,5.6,4.2c-0.1,0.8-1.9,2.7-2.2,3c-0.6,0.8-0.7,1.8-0.1,2.7c0.5,0.8,4.9,4.7,5.1,4.9
		c0.7,0.4,1.7,0.7,2.4,0.1c0.3-0.2,2.1-2,2.6-2.3c1-0.5,4.5,3.4,4.9,4.2c0.5,0.8-0.2,1.7-0.7,2.1c-2.1,2.1-4.9,2.8-9.2,0
		C10,23.4,6.9,20,4.3,17.1C0.8,13.5,2.2,10,3.6,8.6z"/>
	<path fill="none" stroke="#B3B3B3" stroke-linecap="round" stroke-linejoin="round" stroke-miterlimit="10" d="M10.2,3.3
		c0.9-0.9,2.4-1,2.7-1.1c0.9-0.2,1.8-0.3,2.7-0.3c6.8,0,12.2,5.5,12.2,12.2c0,2-0.5,3.9-1.4,5.6"/>
	<path fill="none" stroke="#B3B3B3" stroke-linecap="round" stroke-linejoin="round" stroke-miterlimit="10" d="M12,7.8
		c1.1-0.6,2.3-1,3.6-1c4.1,0,7.3,3.3,7.3,7.3c0,1-0.2,2-0.6,2.9"/>
	
		<line fill="none" stroke="#B3B3B3" stroke-linecap="round" stroke-linejoin="round" stroke-miterlimit="10" x1="4.1" y1="8.3" x2="9" y2="13.3"/>
	
		<line fill="none" stroke="#B3B3B3" stroke-linecap="round" stroke-linejoin="round" stroke-miterlimit="10" x1="17.4" y1="21" x2="22.4" y2="25.9"/>
</g>
</svg>
